<mxfile host="app.diagrams.net" modified="2024-01-11T21:16:01.471Z" agent="Mozilla/5.0 (Windows NT 10.0; Win64; x64; rv:121.0) Gecko/20100101 Firefox/121.0" version="22.1.18" etag="Ovalrwq5c7_iHTJ8Yfo4" type="github">
  <diagram name="PÃ¡gina-1" id="LSPOmQ9YxCxOxddY2yue">
    <mxGraphModel>
      <root>
        <mxCell id="0" />
        <mxCell id="1" parent="0" />
      </root>
    </mxGraphModel>
  </diagram>
</mxfile>
